<svg width="70" height="70" viewBox="0 0 70 70" fill="none" xmlns="http://www.w3.org/2000/svg">
<circle cx="35" cy="35" r="35" fill="#EFEFEF"/>
<path d="M23.924 45.5C23.233 45.5 22.6565 45.269 22.1945 44.807C21.7325 44.345 21.501 43.768 21.5 43.076V26.924C21.5 26.233 21.7315 25.6565 22.1945 25.1945C22.6575 24.7325 23.2335 24.501 23.9225 24.5H37.913C38.127 24.5 38.3105 24.5765 38.4635 24.7295C38.6165 24.8825 38.683 25.0655 38.663 25.2785C38.644 25.4735 38.563 25.6425 38.42 25.7855C38.277 25.9285 38.108 26 37.913 26H23V43.0775C23 43.3465 23.0865 43.5675 23.2595 43.7405C23.4325 43.9135 23.654 44 23.924 44H46.0775C46.3465 44 46.5675 43.9135 46.7405 43.7405C46.9135 43.5675 47 43.3465 47 43.0775V33.5C47 33.287 47.0715 33.1085 47.2145 32.9645C47.3575 32.8205 47.536 32.749 47.75 32.75C47.964 32.751 48.1425 32.8225 48.2855 32.9645C48.4285 33.1065 48.5 33.285 48.5 33.5V43.0775C48.5 43.7675 48.269 44.3435 47.807 44.8055C47.345 45.2675 46.7685 45.499 46.0775 45.5H23.924ZM35 33.5L39.9245 30.299C40.1205 30.169 40.3025 30.1315 40.4705 30.1865C40.6395 30.2415 40.773 30.349 40.871 30.509C40.969 30.669 41.0075 30.834 40.9865 31.004C40.9645 31.176 40.8555 31.326 40.6595 31.454L35.6435 34.7435C35.4315 34.8735 35.217 34.9435 35 34.9535C34.783 34.9635 34.5685 34.903 34.3565 34.772L23 27.644V26L35 33.5ZM45.5 29.405C44.462 29.405 43.577 29.0395 42.845 28.3085C42.113 27.5775 41.748 26.6925 41.75 25.6535C41.752 24.6145 42.117 23.73 42.845 23C43.573 22.27 44.458 21.905 45.5 21.905C46.542 21.905 47.427 22.27 48.155 23C48.883 23.73 49.248 24.615 49.25 25.655C49.252 26.695 48.887 27.5795 48.155 28.3085C47.423 29.0375 46.538 29.4025 45.5 29.4035" fill="#646464"/>
</svg>
