<svg width="70" height="70" viewBox="0 0 70 70" fill="none" xmlns="http://www.w3.org/2000/svg">
<circle cx="35" cy="35" r="35" fill="#EFEFEF"/>
<g clip-path="url(#clip0_917_159)">
<path d="M31.4331 43.0749L22.7414 34.3916C22.6049 34.2321 22.5335 34.0271 22.5416 33.8173C22.5497 33.6076 22.6367 33.4087 22.7851 33.2603C22.9335 33.1118 23.1325 33.0249 23.3422 33.0168C23.5519 33.0087 23.757 33.08 23.9164 33.2166L31.4164 40.7166L46.0747 26.0749C46.2341 25.9384 46.4392 25.867 46.6489 25.8751C46.8587 25.8832 47.0576 25.9702 47.206 26.1186C47.3544 26.267 47.4414 26.466 47.4495 26.6757C47.4576 26.8854 47.3863 27.0905 47.2497 27.2499L31.4331 43.0749Z" fill="#646464"/>
</g>
<defs>
<clipPath id="clip0_917_159">
<rect width="30" height="30" fill="white" transform="translate(20 20)"/>
</clipPath>
</defs>
</svg>
